<svg width="24" height="25" viewBox="0 0 24 25" fill="none" xmlns="http://www.w3.org/2000/svg">
<g id="vuesax/bold/messages-3">
<g id="vuesax/bold/messages-3_2">
<g id="messages-3">
<path id="Vector" d="M15.59 13.2333V17.3033C15.59 17.6633 15.55 18.0033 15.46 18.3133C15.09 19.7833 13.87 20.7033 12.19 20.7033H9.47L6.45 22.7133C6 23.0233 5.4 22.6933 5.4 22.1533V20.7033C4.38 20.7033 3.53 20.3633 2.94 19.7733C2.34 19.1733 2 18.3233 2 17.3033V13.2333C2 11.3333 3.18 10.0233 5 9.85325C5.13 9.84325 5.26 9.83325 5.4 9.83325H12.19C14.23 9.83325 15.59 11.1933 15.59 13.2333Z" fill="#43436A"/>
<path id="Vector_2" d="M17.75 16.4333C19.02 16.4333 20.09 16.0133 20.83 15.2633C21.58 14.5233 22 13.4533 22 12.1833V7.08325C22 4.73325 20.1 2.83325 17.75 2.83325H9.25C6.9 2.83325 5 4.73325 5 7.08325V7.83325C5 8.11325 5.22 8.33325 5.5 8.33325H12.19C14.9 8.33325 17.09 10.5233 17.09 13.2333V15.9333C17.09 16.2133 17.31 16.4333 17.59 16.4333H17.75Z" fill="#43436A"/>
</g>
</g>
</g>
</svg>
