<svg width="24" height="25" viewBox="0 0 24 25" fill="none" xmlns="http://www.w3.org/2000/svg">
<g id="vuesax/bold/security">
<g id="vuesax/bold/security_2">
<g id="security">
<path id="Vector" d="M18.3301 6.50325L6.59008 18.2433C6.15008 18.6833 5.41008 18.6233 5.05008 18.1033C3.81008 16.2933 3.08008 14.1533 3.08008 11.9533V7.56325C3.08008 6.74325 3.70008 5.81325 4.46008 5.50325L10.0301 3.22325C11.2901 2.70325 12.6901 2.70325 13.9501 3.22325L18.0001 4.87325C18.6601 5.14325 18.8301 6.00325 18.3301 6.50325Z" fill="#43436A"/>
<path id="Vector_2" d="M19.27 7.87325C19.92 7.32325 20.91 7.79325 20.91 8.64325V11.9532C20.91 16.8433 17.36 21.4233 12.51 22.7633C12.18 22.8533 11.82 22.8533 11.48 22.7633C10.06 22.3633 8.74001 21.6932 7.61001 20.8132C7.13001 20.4432 7.08001 19.7432 7.50001 19.3132C9.68001 17.0833 16.06 10.5833 19.27 7.87325Z" fill="#43436A"/>
</g>
</g>
</g>
</svg>
