<svg width="24" height="25" viewBox="0 0 24 25" fill="none" xmlns="http://www.w3.org/2000/svg">
<g id="vuesax/bold/sms">
<g id="vuesax/bold/sms_2">
<g id="sms">
<path id="Vector" d="M17 4.33325H7C4 4.33325 2 5.83325 2 9.33325V16.3333C2 19.8333 4 21.3333 7 21.3333H17C20 21.3333 22 19.8333 22 16.3333V9.33325C22 5.83325 20 4.33325 17 4.33325ZM17.47 10.4233L14.34 12.9233C13.68 13.4533 12.84 13.7133 12 13.7133C11.16 13.7133 10.31 13.4533 9.66 12.9233L6.53 10.4233C6.21 10.1633 6.16 9.68325 6.41 9.36325C6.67 9.04325 7.14 8.98325 7.46 9.24325L10.59 11.7433C11.35 12.3533 12.64 12.3533 13.4 11.7433L16.53 9.24325C16.85 8.98325 17.33 9.03325 17.58 9.36325C17.84 9.68325 17.79 10.1633 17.47 10.4233Z" fill="#43436A"/>
</g>
</g>
</g>
</svg>
