<svg width="24" height="25" viewBox="0 0 24 25" fill="none" xmlns="http://www.w3.org/2000/svg">
<g id="vuesax/bold/whatsapp">
<g id="vuesax/bold/whatsapp_2">
<g id="whatsapp">
<g id="Vector">
<mask id="path-1-inside-1_658_1445" fill="white">
<path d="M21.98 12.2432C21.64 6.4432 16.37 1.97321 10.3 2.97321C6.12004 3.66321 2.77005 7.05319 2.12005 11.2332C1.74005 13.6532 2.24007 15.9432 3.33007 17.8332L2.44006 21.1432C2.24006 21.8932 2.93004 22.5732 3.67004 22.3632L6.93005 21.4632C8.41005 22.3332 10.14 22.8332 11.99 22.8332C17.63 22.8332 22.31 17.8632 21.98 12.2432ZM16.8801 16.5532C16.7901 16.7332 16.68 16.9032 16.54 17.0632C16.29 17.3332 16.02 17.5332 15.72 17.6532C15.42 17.7832 15.09 17.8432 14.74 17.8432C14.23 17.8432 13.68 17.7232 13.11 17.4732C12.53 17.2232 11.9601 16.8932 11.3901 16.4832C10.8101 16.0632 10.2701 15.5932 9.75005 15.0832C9.23005 14.5632 8.77003 14.0132 8.35003 13.4432C7.94003 12.8732 7.61005 12.3032 7.37005 11.7332C7.13005 11.1632 7.01006 10.6132 7.01006 10.0932C7.01006 9.75321 7.07006 9.42321 7.19006 9.12321C7.31006 8.81321 7.50007 8.53321 7.77007 8.28321C8.09007 7.96321 8.44005 7.81321 8.81005 7.81321C8.95005 7.81321 9.09002 7.84321 9.22002 7.90321C9.35002 7.96321 9.47005 8.05321 9.56005 8.18321L10.72 9.82319C10.81 9.95319 10.88 10.0632 10.92 10.1732C10.97 10.2832 10.99 10.3832 10.99 10.4832C10.99 10.6032 10.9501 10.7232 10.8801 10.8432C10.8101 10.9632 10.72 11.0832 10.6 11.2032L10.22 11.6032C10.16 11.6632 10.1401 11.7232 10.1401 11.8032C10.1401 11.8432 10.15 11.8832 10.16 11.9232C10.18 11.9632 10.1901 11.9932 10.2001 12.0232C10.2901 12.1932 10.45 12.4032 10.67 12.6632C10.9 12.9232 11.1401 13.1932 11.4001 13.4532C11.6701 13.7232 11.9301 13.9632 12.2001 14.1932C12.4601 14.4132 12.68 14.5632 12.85 14.6532C12.88 14.6632 12.9101 14.6832 12.9401 14.6932C12.9801 14.7132 13.0201 14.7132 13.0701 14.7132C13.1601 14.7132 13.2201 14.6832 13.2801 14.6232L13.66 14.2432C13.79 14.1132 13.9101 14.0232 14.0201 13.9632C14.1401 13.8932 14.2501 13.8532 14.3801 13.8532C14.4801 13.8532 14.5801 13.8732 14.6901 13.9232C14.8001 13.9732 14.92 14.0332 15.04 14.1232L16.7001 15.3032C16.8301 15.3932 16.92 15.5032 16.98 15.6232C17.03 15.7532 17.0601 15.8732 17.0601 16.0132C17.0001 16.1832 16.9601 16.3732 16.8801 16.5532Z"/>
</mask>
<path d="M21.98 12.2432C21.64 6.4432 16.37 1.97321 10.3 2.97321C6.12004 3.66321 2.77005 7.05319 2.12005 11.2332C1.74005 13.6532 2.24007 15.9432 3.33007 17.8332L2.44006 21.1432C2.24006 21.8932 2.93004 22.5732 3.67004 22.3632L6.93005 21.4632C8.41005 22.3332 10.14 22.8332 11.99 22.8332C17.63 22.8332 22.31 17.8632 21.98 12.2432ZM16.8801 16.5532C16.7901 16.7332 16.68 16.9032 16.54 17.0632C16.29 17.3332 16.02 17.5332 15.72 17.6532C15.42 17.7832 15.09 17.8432 14.74 17.8432C14.23 17.8432 13.68 17.7232 13.11 17.4732C12.53 17.2232 11.9601 16.8932 11.3901 16.4832C10.8101 16.0632 10.2701 15.5932 9.75005 15.0832C9.23005 14.5632 8.77003 14.0132 8.35003 13.4432C7.94003 12.8732 7.61005 12.3032 7.37005 11.7332C7.13005 11.1632 7.01006 10.6132 7.01006 10.0932C7.01006 9.75321 7.07006 9.42321 7.19006 9.12321C7.31006 8.81321 7.50007 8.53321 7.77007 8.28321C8.09007 7.96321 8.44005 7.81321 8.81005 7.81321C8.95005 7.81321 9.09002 7.84321 9.22002 7.90321C9.35002 7.96321 9.47005 8.05321 9.56005 8.18321L10.72 9.82319C10.81 9.95319 10.88 10.0632 10.92 10.1732C10.97 10.2832 10.99 10.3832 10.99 10.4832C10.99 10.6032 10.9501 10.7232 10.8801 10.8432C10.8101 10.9632 10.72 11.0832 10.6 11.2032L10.22 11.6032C10.16 11.6632 10.1401 11.7232 10.1401 11.8032C10.1401 11.8432 10.15 11.8832 10.16 11.9232C10.18 11.9632 10.1901 11.9932 10.2001 12.0232C10.2901 12.1932 10.45 12.4032 10.67 12.6632C10.9 12.9232 11.1401 13.1932 11.4001 13.4532C11.6701 13.7232 11.9301 13.9632 12.2001 14.1932C12.4601 14.4132 12.68 14.5632 12.85 14.6532C12.88 14.6632 12.9101 14.6832 12.9401 14.6932C12.9801 14.7132 13.0201 14.7132 13.0701 14.7132C13.1601 14.7132 13.2201 14.6832 13.2801 14.6232L13.66 14.2432C13.79 14.1132 13.9101 14.0232 14.0201 13.9632C14.1401 13.8932 14.2501 13.8532 14.3801 13.8532C14.4801 13.8532 14.5801 13.8732 14.6901 13.9232C14.8001 13.9732 14.92 14.0332 15.04 14.1232L16.7001 15.3032C16.8301 15.3932 16.92 15.5032 16.98 15.6232C17.03 15.7532 17.0601 15.8732 17.0601 16.0132C17.0001 16.1832 16.9601 16.3732 16.8801 16.5532Z" fill="#43436A"/>
<path d="M21.98 12.2432L20.9817 12.3017L20.9818 12.3018L21.98 12.2432ZM10.3 2.97321L10.1375 1.98651L10.1372 1.98657L10.3 2.97321ZM2.12005 11.2332L3.10794 11.3883L3.10817 11.3868L2.12005 11.2332ZM3.33007 17.8332L4.29577 18.0929L4.40339 17.6926L4.19633 17.3336L3.33007 17.8332ZM2.44006 21.1432L1.47435 20.8835L1.47382 20.8855L2.44006 21.1432ZM3.67004 22.3632L3.40391 21.3992L3.39703 21.4012L3.67004 22.3632ZM6.93005 21.4632L7.43681 20.6011L7.07193 20.3866L6.66393 20.4993L6.93005 21.4632ZM11.99 22.8332V23.8332V22.8332ZM16.8801 16.5532L17.7745 17.0004L17.7846 16.9801L17.7939 16.9593L16.8801 16.5532ZM16.54 17.0632L17.2738 17.7426L17.2833 17.7323L17.2926 17.7217L16.54 17.0632ZM15.72 17.6532L15.3486 16.7247L15.3354 16.73L15.3224 16.7357L15.72 17.6532ZM13.11 17.4732L13.5117 16.5574L13.5059 16.5549L13.11 17.4732ZM11.3901 16.4832L10.8036 17.2931L10.8061 17.295L11.3901 16.4832ZM9.75005 15.0832L9.04291 15.7903L9.04984 15.7971L9.75005 15.0832ZM8.35003 13.4432L7.53817 14.0272L7.54497 14.0364L8.35003 13.4432ZM7.19006 9.12321L8.11859 9.49462L8.12262 9.4842L7.19006 9.12321ZM7.77007 8.28321L8.44948 9.01697L8.46359 9.00391L8.47718 8.99032L7.77007 8.28321ZM9.56005 8.18321L8.73782 8.75244L8.74363 8.76066L9.56005 8.18321ZM10.72 9.82319L11.5423 9.25395L11.5364 9.24573L10.72 9.82319ZM10.92 10.1732L9.98024 10.5149L9.99355 10.5515L10.0097 10.587L10.92 10.1732ZM10.6 11.2032L9.89292 10.4961L9.88386 10.5051L9.87504 10.5144L10.6 11.2032ZM10.22 11.6032L10.9271 12.3103L10.9362 12.3012L10.945 12.2919L10.22 11.6032ZM10.16 11.9232L9.18988 12.1657L9.21651 12.2722L9.2656 12.3704L10.16 11.9232ZM10.2001 12.0232L9.25138 12.3394L9.27755 12.4179L9.31628 12.4911L10.2001 12.0232ZM10.67 12.6632L9.90665 13.3091L9.91375 13.3175L9.92104 13.3258L10.67 12.6632ZM12.2001 14.1932L11.5516 14.9544L11.5541 14.9566L12.2001 14.1932ZM12.85 14.6532L12.3821 15.537L12.4553 15.5757L12.5338 15.6019L12.85 14.6532ZM12.9401 14.6932L13.3873 13.7988L13.3237 13.767L13.2563 13.7445L12.9401 14.6932ZM13.2801 14.6232L13.9872 15.3303L13.9872 15.3303L13.2801 14.6232ZM13.66 14.2432L12.9529 13.5361L12.9529 13.5362L13.66 14.2432ZM14.0201 13.9632L14.4989 14.8411L14.5115 14.8342L14.5239 14.827L14.0201 13.9632ZM15.04 14.1232L14.44 14.9232L14.4503 14.9309L14.4607 14.9383L15.04 14.1232ZM16.7001 15.3032L16.1207 16.1183L16.1309 16.1254L16.7001 15.3032ZM16.98 15.6232L17.9134 15.2642L17.8961 15.2192L17.8745 15.176L16.98 15.6232ZM17.0601 16.0132L18.003 16.346L18.0601 16.1845V16.0132H17.0601ZM22.9783 12.1847C22.6044 5.80543 16.8064 0.887852 10.1375 1.98651L10.4626 3.95991C15.9337 3.05858 20.6757 7.08098 20.9817 12.3017L22.9783 12.1847ZM10.1372 1.98657C5.53025 2.74704 1.84815 6.47364 1.13192 11.0795L3.10817 11.3868C3.69194 7.63275 6.70983 4.57939 10.4629 3.95986L10.1372 1.98657ZM1.13215 11.0781C0.715329 13.7326 1.26418 16.2527 2.46381 18.3328L4.19633 17.3336C3.21596 15.6337 2.76477 13.5738 3.10794 11.3883L1.13215 11.0781ZM2.36437 17.5735L1.47436 20.8835L3.40575 21.4029L4.29577 18.0929L2.36437 17.5735ZM1.47382 20.8855C1.07582 22.378 2.44961 23.749 3.94304 23.3252L3.39703 21.4012C3.39294 21.4023 3.39294 21.4018 3.39608 21.4018C3.39902 21.4018 3.40216 21.4023 3.40481 21.403C3.40953 21.4043 3.40887 21.4053 3.40595 21.4024C3.40306 21.3995 3.40336 21.3982 3.40423 21.4012C3.40475 21.403 3.40503 21.405 3.40505 21.4065C3.40507 21.4083 3.40474 21.4067 3.40629 21.4009L1.47382 20.8855ZM3.93615 23.3271L7.19616 22.4271L6.66393 20.4993L3.40392 21.3993L3.93615 23.3271ZM6.42328 22.3253C8.05327 23.2835 9.95769 23.8332 11.99 23.8332V21.8332C10.3224 21.8332 8.76682 21.3829 7.43681 20.6011L6.42328 22.3253ZM11.99 23.8332C18.2056 23.8332 23.342 18.3787 22.9783 12.1846L20.9818 12.3018C21.278 17.3477 17.0545 21.8332 11.99 21.8332V23.8332ZM15.9856 16.106C15.9297 16.2179 15.8657 16.3153 15.7875 16.4047L17.2926 17.7217C17.4944 17.4911 17.6505 17.2485 17.7745 17.0004L15.9856 16.106ZM15.8063 16.3838C15.6326 16.5714 15.4809 16.6718 15.3486 16.7247L16.0914 18.5817C16.5591 18.3946 16.9474 18.0951 17.2738 17.7426L15.8063 16.3838ZM15.3224 16.7357C15.167 16.803 14.9757 16.8432 14.74 16.8432V18.8432C15.2044 18.8432 15.6731 18.7634 16.1176 18.5708L15.3224 16.7357ZM14.74 16.8432C14.3873 16.8432 13.9737 16.7601 13.5117 16.5574L12.7084 18.389C13.3864 18.6864 14.0728 18.8432 14.74 18.8432V16.8432ZM13.5059 16.5549C13.0013 16.3374 12.494 16.0454 11.974 15.6714L10.8061 17.295C11.4262 17.741 12.0587 18.109 12.7142 18.3915L13.5059 16.5549ZM11.9766 15.6733C11.4448 15.2882 10.9426 14.8521 10.4503 14.3693L9.04984 15.7971C9.5975 16.3343 10.1753 16.8382 10.8036 17.2931L11.9766 15.6733ZM10.4572 14.3761C9.97816 13.8971 9.55038 13.3865 9.15508 12.85L7.54497 14.0364C7.98968 14.6399 8.48194 15.2293 9.04295 15.7903L10.4572 14.3761ZM9.16183 12.8593C8.78711 12.3383 8.49735 11.8336 8.29168 11.3451L6.44841 12.1213C6.72274 12.7728 7.09295 13.4081 7.53822 14.0271L9.16183 12.8593ZM8.29168 11.3451C8.09434 10.8765 8.01006 10.4584 8.01006 10.0932H6.01006C6.01006 10.768 6.16575 11.4499 6.44841 12.1213L8.29168 11.3451ZM8.01006 10.0932C8.01006 9.86976 8.04959 9.66696 8.11853 9.4946L6.26158 8.75182C6.09052 9.17946 6.01006 9.63666 6.01006 10.0932H8.01006ZM8.12262 9.4842C8.1849 9.32331 8.28531 9.16898 8.44948 9.01697L7.09066 7.54945C6.71484 7.89744 6.43521 8.3031 6.25749 8.76221L8.12262 9.4842ZM8.47718 8.99032C8.63795 8.82955 8.74279 8.81321 8.81005 8.81321V6.81321C8.13731 6.81321 7.54219 7.09688 7.06297 7.5761L8.47718 8.99032ZM8.81005 8.81321C8.80724 8.81321 8.80405 8.81259 8.80097 8.81117L9.63908 6.99525C9.37599 6.87382 9.09286 6.81321 8.81005 6.81321V8.81321ZM8.80097 8.81117C8.7997 8.81058 8.791 8.8064 8.77833 8.79621C8.76504 8.78553 8.75052 8.7707 8.73786 8.75242L10.3822 7.614C10.1743 7.31362 9.90326 7.11718 9.63908 6.99525L8.80097 8.81117ZM8.74363 8.76066L9.9036 10.4006L11.5364 9.24573L10.3765 7.60575L8.74363 8.76066ZM9.89783 10.3924C9.9387 10.4514 9.9618 10.4871 9.97638 10.5119C9.99028 10.5356 9.98724 10.5342 9.98024 10.5149L11.8598 9.83145C11.771 9.58724 11.6314 9.38287 11.5422 9.25398L9.89783 10.3924ZM10.0097 10.587C10.0078 10.583 10.002 10.5688 9.99705 10.5464C9.99204 10.5235 9.99004 10.5015 9.99004 10.4832H11.99C11.99 10.2366 11.9379 9.99584 11.8304 9.75939L10.0097 10.587ZM9.99004 10.4832C9.99004 10.3764 10.026 10.3227 10.0163 10.3393L11.7438 11.3471C11.8741 11.1237 11.99 10.8299 11.99 10.4832H9.99004ZM10.0163 10.3393C9.98961 10.3851 9.95225 10.4368 9.89292 10.4961L11.3071 11.9103C11.4878 11.7296 11.6305 11.5414 11.7438 11.3471L10.0163 10.3393ZM9.87504 10.5144L9.49503 10.9144L10.945 12.2919L11.325 11.892L9.87504 10.5144ZM9.51292 10.8961C9.40027 11.0087 9.29448 11.1538 9.22408 11.337C9.15541 11.5157 9.14007 11.6799 9.14007 11.8032H11.1401C11.1401 11.8465 11.1347 11.9407 11.091 12.0544C11.0456 12.1726 10.9798 12.2576 10.9271 12.3103L9.51292 10.8961ZM9.14007 11.8032C9.14007 11.9875 9.18551 12.1482 9.18988 12.1657L11.1302 11.6807C11.1274 11.6696 11.1267 11.6668 11.1264 11.6654C11.1262 11.6646 11.1275 11.6701 11.1293 11.6794C11.1325 11.6969 11.1401 11.7418 11.1401 11.8032H9.14007ZM9.2656 12.3704C9.26313 12.3655 9.26043 12.3597 9.25765 12.3534C9.25487 12.3471 9.25251 12.3413 9.25063 12.3364C9.2488 12.3316 9.24776 12.3286 9.24778 12.3287C9.24807 12.3295 9.24867 12.3313 9.25138 12.3394L11.1487 11.707C11.1362 11.6694 11.1079 11.583 11.0545 11.476L9.2656 12.3704ZM9.31628 12.4911C9.46159 12.7656 9.68515 13.0474 9.90665 13.3091L11.4334 12.0172C11.2149 11.759 11.1185 11.6208 11.0839 11.5553L9.31628 12.4911ZM9.92104 13.3258C10.1497 13.5843 10.4085 13.8759 10.693 14.1603L12.1072 12.7461C11.8716 12.5105 11.6503 12.2621 11.419 12.0006L9.92104 13.3258ZM10.693 14.1603C10.9811 14.4484 11.2606 14.7066 11.5516 14.9544L12.8485 13.4319C12.5995 13.2198 12.3591 12.998 12.1072 12.7461L10.693 14.1603ZM11.5541 14.9566C11.8502 15.2071 12.1301 15.4036 12.3821 15.537L13.3179 13.7694C13.23 13.7229 13.0699 13.6193 12.846 13.4298L11.5541 14.9566ZM12.5338 15.6019C12.4957 15.5892 12.4679 15.5768 12.4562 15.5715C12.4457 15.5667 12.438 15.5627 12.4483 15.5678C12.4531 15.5702 12.4757 15.5817 12.5012 15.5933C12.528 15.6056 12.5707 15.6242 12.6238 15.6419L13.2563 13.7445C13.2944 13.7572 13.3222 13.7695 13.3339 13.7749C13.3444 13.7797 13.352 13.7837 13.3418 13.7786C13.337 13.7762 13.3143 13.7647 13.2889 13.7531C13.2621 13.7408 13.2194 13.7222 13.1663 13.7045L12.5338 15.6019ZM12.4928 15.5876C12.7777 15.73 13.0593 15.7132 13.0701 15.7132V13.7132C13.0548 13.7132 13.057 13.7131 13.0618 13.7133C13.0683 13.7134 13.0893 13.7141 13.1184 13.7176C13.1834 13.7252 13.2807 13.7455 13.3873 13.7988L12.4928 15.5876ZM13.0701 15.7132C13.2317 15.7132 13.4111 15.6851 13.5924 15.6046C13.7693 15.5259 13.8981 15.4194 13.9872 15.3303L12.573 13.9161C12.6021 13.887 12.6709 13.8255 12.7803 13.7769C12.894 13.7263 12.9984 13.7132 13.0701 13.7132V15.7132ZM13.9872 15.3303L14.3672 14.9503L12.9529 13.5362L12.5729 13.9162L13.9872 15.3303ZM14.3671 14.9503C14.4438 14.8736 14.4888 14.8466 14.4989 14.8411L13.5412 13.0853C13.3314 13.1998 13.1362 13.3528 12.9529 13.5361L14.3671 14.9503ZM14.5239 14.827C14.542 14.8165 14.5313 14.8247 14.5004 14.8346C14.465 14.8459 14.4225 14.8532 14.3801 14.8532V12.8532C14.0161 12.8532 13.731 12.9741 13.5162 13.0994L14.5239 14.827ZM14.3801 14.8532C14.3618 14.8532 14.3397 14.8512 14.3169 14.8462C14.2944 14.8413 14.2803 14.8354 14.2763 14.8336L15.1039 13.0128C14.8674 12.9054 14.6266 12.8532 14.3801 12.8532V14.8532ZM14.2763 14.8336C14.3616 14.8723 14.4054 14.8973 14.44 14.9232L15.64 13.3232C15.4346 13.1692 15.2385 13.0741 15.1039 13.0128L14.2763 14.8336ZM14.4607 14.9383L16.1207 16.1183L17.2794 14.4881L15.6194 13.3081L14.4607 14.9383ZM16.1309 16.1254C16.127 16.1228 16.1183 16.1159 16.1082 16.1041C16.0982 16.0925 16.0907 16.0805 16.0856 16.0704L17.8745 15.176C17.7418 14.9106 17.542 14.6698 17.2693 14.481L16.1309 16.1254ZM16.0467 15.9822C16.0528 15.998 16.0564 16.0088 16.0586 16.0158C16.0596 16.0192 16.0603 16.0216 16.0607 16.0231C16.0609 16.0239 16.0611 16.0245 16.0612 16.0248C16.0612 16.0252 16.0613 16.0254 16.0613 16.0254C16.0613 16.0254 16.0613 16.0252 16.0612 16.0249C16.0611 16.0246 16.0611 16.0242 16.061 16.0237C16.0608 16.0227 16.0606 16.0214 16.0605 16.0199C16.0601 16.0167 16.0601 16.0142 16.0601 16.0132H18.0601C18.0601 15.7143 17.9923 15.4693 17.9134 15.2642L16.0467 15.9822ZM16.1171 15.6804C16.0767 15.7947 16.0389 15.9285 16.0201 15.9909C15.9955 16.0725 15.9799 16.1162 15.9662 16.1471L17.7939 16.9593C17.8602 16.8102 17.9046 16.6689 17.935 16.568C17.9712 16.4479 17.9834 16.4017 18.003 16.346L16.1171 15.6804Z" fill="#43436A" mask="url(#path-1-inside-1_658_1445)"/>
</g>
</g>
</g>
</g>
</svg>
